<?xml version="1.0" standalone="no"?>
<!DOCTYPE svg PUBLIC "-//W3C//DTD SVG 20010904//EN"
 "http://www.w3.org/TR/2001/REC-SVG-20010904/DTD/svg10.dtd">
<svg version="1.0" xmlns="http://www.w3.org/2000/svg"
 width="512.000000pt" height="512.000000pt" viewBox="0 0 512.000000 512.000000"
 preserveAspectRatio="xMidYMid meet">
<metadata>
Created by potrace 1.14, written by Peter Selinger 2001-2017
</metadata>
<g transform="translate(0.000000,512.000000) scale(0.100000,-0.100000)"
fill="#000000" stroke="none">
<path d="M415 4508 c-202 -42 -364 -201 -404 -397 -15 -70 -14 -627 1 -696 36
-170 156 -307 326 -372 53 -20 89 -26 169 -28 164 -5 280 36 384 137 72 69
105 120 134 206 27 79 41 248 21 254 -10 3 -235 2 -277 -1 -13 -1 -16 -15 -17
-71 -1 -78 -22 -129 -69 -170 -48 -42 -76 -53 -143 -56 -111 -4 -197 50 -228
143 -16 47 -16 568 -1 613 30 86 104 141 196 145 151 7 240 -75 245 -227 l3
-73 140 -1 c77 0 145 4 151 8 13 10 10 128 -6 202 -38 180 -197 337 -385 383
-38 9 -200 10 -240 1z"/>
<path d="M1765 4508 c-68 -12 -181 -68 -237 -117 -61 -54 -115 -138 -146 -225
-25 -70 -25 -77 -26 -379 -1 -209 2 -327 11 -368 30 -150 136 -287 273 -352
90 -43 156 -56 269 -53 226 7 407 142 477 359 22 70 23 81 20 402 -1 182 -5
342 -9 357 -44 165 -174 303 -338 358 -71 24 -211 33 -294 18z m238 -321 c44
-26 71 -58 94 -110 10 -22 12 -105 10 -321 l-2 -293 -30 -49 c-40 -64 -96 -96
-179 -100 -75 -3 -128 14 -172 57 -66 64 -67 73 -68 389 0 312 2 328 58 389
45 48 98 68 177 66 52 -2 77 -8 112 -28z"/>
<path d="M2710 3763 l0 -754 300 2 c221 1 317 5 362 15 191 45 346 208 384
404 13 67 11 601 -3 675 -33 180 -156 320 -339 387 -55 20 -79 22 -381 24
l-323 2 0 -755z m635 435 c38 -20 78 -63 101 -108 16 -31 17 -66 18 -325 0
-283 -1 -291 -23 -334 -25 -48 -48 -72 -96 -98 -23 -13 -64 -17 -182 -19
l-153 -3 0 453 0 454 153 -2 c117 -2 159 -6 182 -18z"/>
<path d="M4069 4502 c-3 -51 -4 -1469 -1 -1479 3 -10 118 -13 528 -13 l525 0
-3 152 -3 151 -375 0 -375 0 2 126 c1 69 2 137 2 151 l1 25 275 0 275 -1 0
151 0 150 -275 0 c-256 0 -275 1 -276 17 0 10 0 70 0 133 0 63 0 123 0 133 1
17 23 18 376 17 l375 0 -2 150 -3 150 -522 2 c-481 1 -523 0 -524 -15z"/>
<path d="M0 2410 l0 -300 150 0 150 0 0 150 0 150 150 0 c113 0 150 3 151 13
1 18 1 260 0 275 -1 9 -68 12 -301 12 l-300 0 0 -300z"/>
<path d="M904 2560 l0 -150 301 0 301 0 0 150 0 150 -301 0 -301 0 0 -150z"/>
<path d="M1809 2693 c-1 -21 -1 -265 0 -275 1 -5 136 -8 301 -8 l300 0 0 150
0 150 -300 0 c-279 0 -300 -1 -301 -17z"/>
<path d="M2710 2560 l0 -150 300 0 300 0 1 33 c1 41 1 250 0 260 -1 4 -136 7
-301 7 l-300 0 0 -150z"/>
<path d="M3614 2560 l0 -150 301 0 301 0 0 150 0 150 -301 0 -300 0 -1 -150z"/>
<path d="M4519 2683 c-1 -37 -1 -200 0 -240 l1 -33 151 0 150 0 -1 -97 c-1
-54 -1 -122 -1 -150 l1 -53 150 0 150 0 0 300 0 300 -300 0 -300 0 -1 -27z"/>
<path d="M900 1955 l-104 -104 102 -102 c56 -55 102 -107 102 -113 0 -7 -35
-46 -77 -88 -43 -41 -88 -86 -101 -100 l-22 -25 105 -104 106 -105 102 103
c56 56 105 103 108 103 3 0 53 -47 110 -104 l104 -104 108 106 107 107 -107
107 -107 107 106 106 107 106 -105 105 c-104 104 -106 106 -126 87 -11 -10
-60 -57 -108 -105 l-87 -87 -104 105 c-57 57 -106 104 -109 104 -3 0 -52 -47
-110 -105z"/>
<path d="M2248 1960 c-54 -54 -98 -102 -98 -107 0 -5 46 -55 102 -111 l102
-102 -107 -108 -107 -107 107 -107 108 -107 107 108 107 107 105 -106 105
-107 105 104 c58 58 106 106 106 108 0 2 -47 50 -105 108 l-105 104 107 107
107 107 -107 107 -107 107 -107 -107 -108 -107 -103 105 c-57 57 -107 104
-110 103 -4 0 -51 -45 -104 -99z"/>
<path d="M3573 1955 l-102 -103 107 -106 106 -107 -107 -107 -107 -107 107
-107 108 -107 103 104 c83 84 107 103 120 96 10 -6 58 -52 109 -104 l91 -94
106 105 c58 58 106 106 106 107 0 2 -47 50 -105 108 l-105 105 107 106 107
106 -107 108 -107 107 -107 -107 -108 -107 -103 104 c-57 58 -107 105 -110
104 -4 0 -53 -47 -109 -104z"/>
<path d="M0 1656 l0 -151 143 1 c78 1 145 2 150 3 4 1 7 68 7 150 l0 148 -150
1 -150 0 0 -152z"/>
<path d="M4818 1691 c-2 -64 -1 -132 2 -151 l5 -35 135 1 c74 1 141 2 148 3 9
1 12 38 12 150 l0 149 -149 0 -150 -1 -3 -116z"/>
<path d="M0 904 l0 -302 303 0 302 0 0 149 c0 142 -1 149 -20 150 -11 1 -78 2
-150 3 l-130 1 -5 150 -5 150 -147 0 -148 0 0 -301z"/>
<path d="M4819 1070 c-1 -74 -1 -142 0 -150 1 -13 -19 -16 -140 -15 -77 0
-145 -3 -151 -6 -7 -4 -11 -62 -12 -151 l-1 -145 303 0 302 0 -2 301 -3 301
-147 0 -148 0 -1 -135z"/>
<path d="M911 900 c-4 -3 -7 -70 -7 -150 l1 -145 298 -1 c295 -1 297 -1 301
20 3 11 4 79 3 150 l-2 130 -293 0 c-162 1 -297 -1 -301 -4z"/>
<path d="M1813 893 c-2 -6 -5 -74 -6 -151 l-2 -139 303 -1 302 0 0 149 c0 82
-3 149 -7 150 -5 1 -138 2 -297 3 -212 1 -290 -2 -293 -11z"/>
<path d="M2714 901 c-2 -2 -4 -70 -4 -151 l0 -147 300 0 300 0 1 41 c3 131 1
248 -5 254 -7 7 -585 10 -592 3z"/>
<path d="M3619 900 c-1 -3 -2 -71 -3 -151 l-2 -146 301 1 300 1 1 142 c0 79
-2 146 -5 150 -6 9 -590 11 -592 3z"/>
</g>
</svg>
